# AST/ASF file generated using VICON BodyLanguage
# -----------------------------------------------
:version 1.10
:name VICON
:units
  mass 1.0
  length 0.45
  angle deg
:documentation
   .ast/.asf automatically generated from VICON data using
   VICON BodyBuilder and BodyLanguage model FoxedUp or BRILLIANT.MOD
:root
   order TX TY TZ RX RY RZ
   axis XYZ
   position 0 0 0  
   orientation 0 0 0 
:bonedata
  begin
     id 1 
     name lhipjoint
     direction 0.662698 -0.695252 0.27831 
     length 2.53073 
     axis 0 0 0  XYZ
  end
  begin
     id 2 
     name lfemur
     direction 0.34202 -0.939693 0  
     length 7.16147  
     axis 0 0 20  XYZ
    dof rx ry rz
    limits (-160.0 20.0)
           (-70.0 70.0)
           (-60.0 70.0)
  end
  begin
     id 3 
     name ltibia
     direction 0.34202 -0.939693 0   
     length 7.63967   
     axis 0 0 20   XYZ
    dof rx
    limits (-10.0 170.0)
  end
  begin
     id 4 
     name lfoot
     direction 0.0938457 -0.257721 0.961651   
     length 1.89793   
     axis -90 7.62852e-016 20   XYZ
    dof rx rz
    limits (-45.0 90.0)
           (-70.0 20.0)
  end
  begin
     id 5 
     name ltoes
     direction -0.00116841 -0.0030592 0.999995   
     length 0.955649   
     axis -90 7.62852e-016 20   XYZ
    dof rx
    limits (-90.0 20.0)
  end
  begin
     id 6 
     name rhipjoint
     direction -0.649445 -0.705948 0.282592   
     length 2.49238  
     axis 0 0 0  XYZ 
  end
  begin
     id 7 
     name rfemur
     direction -0.34202 -0.939693 0   
     length 6.90728   
     axis 0 0 -20   XYZ
    dof rx ry rz
    limits (-160.0 20.0)
           (-70.0 70.0)
           (-70.0 60.0)
  end
  begin
     id 8 
     name rtibia
     direction -0.34202 -0.939693 0   
     length 7.72868   
     axis 0 0 -20   XYZ
    dof rx
    limits (-10.0 170.0)
 end
 begin
     id 9 
     name rfoot
     direction -0.0920068 -0.252865 0.963117   
     length 1.97476  
     axis -90 -7.62852e-016 -20   XYZ
    dof rx rz
    limits (-45.0 90.0)
           (-20.0 70.0)
  end
  begin
     id 10 
     name rtoes
     direction 0.000391322 0.00230649 0.999997   
     length 0.992641   
     axis -90 -7.62852e-016 -20   XYZ
    dof rx
    limits (-90.0 20.0)
  end
  begin
     id 11 
     name lowerback
     direction -0.00875327 0.998321 -0.0572635   
     length 2.20024   
     axis 0 0 0   XYZ
    dof rx ry rz
    limits (-20.0 45.0)
           (-30.0 30.0)
           (-30.0 30.0)
  end
  begin
     id 12 
     name upperback
     direction 0.00753931 0.999972 -0.000360425   
     length 2.20538   
     axis 0 0 0   XYZ
    dof rx ry rz
    limits (-20.0 45.0)
           (-30.0 30.0)
           (-30.0 30.0)
  end
  begin
     id 13 
     name thorax
     direction 0.0117767 0.999601 0.0256663   
     length 2.21508   
     axis 0 0 0   XYZ
    dof rx ry rz
    limits (-20.0 45.0)
           (-30.0 30.0)
           (-30.0 30.0)
  end
  begin
     id 14 
     name lowerneck
     direction 0.060228 0.994909 0.0807986   
     length 1.7607   
     axis 0 0 0   XYZ
    dof rx ry rz
    limits (-20.0 45.0)
           (-30.0 30.0)
           (-30.0 30.0)
  end
  begin
     id 15 
     name upperneck
     direction -0.0563647 0.959594 -0.275685   
     length 1.75612   
     axis 0 0 0   XYZ
    dof rx ry rz
    limits (-20.0 45.0)
           (-30.0 30.0)
           (-30.0 30.0)
  end
  begin
     id 16
     name head
     direction -0.0161544 0.99458 -0.102714  
     length 1.79288  
     axis 0 0 0   XYZ
    dof rx ry rz
    limits (-20.0 45.0)
           (-30.0 30.0)
           (-30.0 30.0)
  end
  begin
     id 17 
     name lclavicle
     direction 0.93913 0.332189 -0.087669  
     length 3.52087  
     axis 0 0 0   XYZ
    dof ry rz
    limits (-20.0 10.0)
           (0.0 20.0)
  end
  begin
     id 18 
     name lhumerus
     direction 1 -4.48974e-011 -2.70836e-027   
     length 5.35289   
     axis -180 -30 -90   XYZ
    dof rx ry rz
    limits (-60.0 90.0)
           (-90.0 90.0)
           (-90.0 90.0)
  end
  begin
     id 19
     name lradius
     direction 1 -4.48961e-011 -9.76021e-027   
     length 3.27727   
     axis -180 -30 -90   XYZ
    dof rx
    limits (-10.0 170.0)
  end
  begin
     id 20
     name lwrist
     direction 1 -4.49103e-011 -2.23668e-026   
     length 1.63864   
     axis 1.44924e-014 90 90   XYZ
    dof ry
    limits (-180.0 0.0)
 end
  begin
     id 21 
     name lhand
     direction 1 3.0697e-005 0.000161777   
     length 0.54443   
     axis 2.85318e-014 90 90   XYZ
    dof rx rz
    limits (-90.0 90.0)
           (-45.0 45.0)
  end
  begin
     id 22 
     name lfingers
     direction 1 -4.49027e-011 -8.9447e-026   
     length 0.438912   
     axis 5.70628e-014 90 90   XYZ
    dof rx
    limits (0.0 90.0)
  end
  begin
     id 23
     name lthumb
     direction 0.707058 2.6516e-005 0.707156   
     length 0.630274   
     axis -90 45 -3.53137e-014   XYZ
    dof rx rz
    limits (-45.0 45.0)
           (-45.0 45.0)
  end
  begin
     id 24 
     name rclavicle
     direction -0.95274 0.284984 -0.105215   
     length 3.43401  
     axis 0 0 0   XYZ 
    dof ry rz
    limits (-10.0 20.0)
           (-20.0 0.0)
  end
  begin
     id 25 
     name rhumerus
     direction -0.999999 -0.000575019 -0.00106829  
     length 5.52077   
     axis -180 30 90   XYZ
    dof rx ry rz
    limits (-90.0 60.0)
           (-90.0 90.0)
           (-90.0 90.0)
  end
  begin
     id 26 
     name rradius
     direction -1 -4.4879e-011 -6.35415e-027   
     length 3.32364   
     axis -180 30 90   XYZ
    dof rx
    limits (-10.0 170.0)
  end
  begin
     id 27 
     name rwrist
     direction -1 -4.49048e-011 -9.98542e-027   
     length 1.66182   
     axis 6.32482e-015 -90 -90   XYZ
    dof ry
    limits (-180.0 0.0)
  end
  begin
     id 28
     name rhand
     direction -1 -4.48978e-011 -1.99771e-026   
     length 0.732235   
     axis 1.27479e-014 -90 -90   XYZ
    dof rx rz
    limits (-90.0 90.0)
           (-45.0 45.0)
  end
  begin
     id 29
     name rfingers
     direction -1 -4.49144e-011 -3.99245e-026   
     length 0.590347   
     axis 2.5496e-014 -90 -90   XYZ
    dof rx
    limits (0.0 90.0)
  end
  begin
     id 30
     name rthumb
     direction -0.707107 -6.35121e-011 0.707107   
     length 0.847624   
     axis -90 -45 -2.82974e-014   XYZ
    dof rx rz
    limits (-45.0 45.0)
           (-45.0 45.0)
  end
:hierarchy
  begin
    root lhipjoint rhipjoint lowerback
    lhipjoint lfemur
    lfemur ltibia
    ltibia lfoot
    lfoot ltoes
    rhipjoint rfemur
    rfemur rtibia
    rtibia rfoot
    rfoot rtoes
    lowerback upperback
    upperback thorax
    thorax lowerneck lclavicle rclavicle
    lowerneck upperneck
    upperneck head
    lclavicle lhumerus
    lhumerus lradius
    lradius lwrist
    lwrist lhand lthumb
    lhand lfingers
    rclavicle rhumerus
    rhumerus rradius
    rradius rwrist
    rwrist rhand rthumb
    rhand rfingers
  end

#!OML:ASF G:\Work\Work\Patient Classification 1\Elijah\terrain1\Elijah.ASF
:FULLY-SPECIFIED
:DEGREES
296
root -5.31993 19.2676 9.92028 4.58204 7.04712 6.04817
lowerback 8.28128 0.820684 -7.96312
upperback 2.02906 0.377839 -1.49265
thorax -2.57214 0.229222 2.88053
lowerneck -13.2057 14.5123 12.1418
upperneck 31.8333 23.0931 -12.629
head 16.8294 9.78323 -2.73801
rclavicle 7.4917e-015 2.12203e-014
rhumerus -43.7741 2.13553 -85.9758
rradius 27.957
rwrist 2.90974
rhand -12.3623 23.3509
rfingers 7.12502
rthumb 13.7079 -6.17763
lclavicle 7.4917e-015 2.12203e-014
lhumerus -40.5272 -4.81233 83.6579
lradius 61.5324
lwrist 9.49895
lhand -16.3748 26.1341
lfingers 7.12502
lthumb 9.83861 55.8842
rfemur -54.7039 -7.84099 18.0265
rtibia 68.1797
rfoot 1.76535 -1.89913
rtoes -25.7092
lfemur -11.6099 -9.57647 -32.5289
ltibia 40.9881
lfoot -27.0271 -4.73155
ltoes -8.58535
297
root -5.3138 19.2569 10.0347 4.4713 7.49733 5.9945
lowerback 7.91248 0.865107 -7.7394
upperback 2.31452 0.50906 -1.50098
thorax -2.08176 0.269926 2.73769
lowerneck -13.864 14.9283 12.1916
upperneck 31.524 23.8692 -13.2174
head 17.098 10.0027 -2.73228
rclavicle 6.36111e-015 -2.16178e-014
rhumerus -43.3224 1.91167 -86.0024
rradius 27.2236
rwrist 2.75084
rhand -12.9931 24.1544
rfingers 7.12502
rthumb 13.0999 -5.41419
lclavicle 6.36111e-015 -2.16178e-014
lhumerus -40.3462 -5.18409 83.7279
lradius 61.5427
lwrist 9.55733
lhand -16.1412 26.3536
lfingers 7.12502
lthumb 10.0639 56.093
rfemur -53.8056 -7.44142 17.6411
rtibia 65.5325
rfoot 2.45495 -1.48863
rtoes -27.2057
lfemur -11.1536 -9.58663 -32.4727
ltibia 41.2302
lfoot -27.056 -5.28696
ltoes -7.42195
298
root -5.30212 19.2486 10.1463 4.41453 8.0331 5.83331
lowerback 7.89916 0.84677 -7.41047
upperback 2.30031 0.513533 -1.4152
thorax -2.08877 0.272221 2.6429
lowerneck -14.1233 15.0388 11.9251
upperneck 31.2482 24.0816 -13.313
head 17.0291 10.0457 -2.65392
rclavicle -1.4884e-014 -3.63776e-014
rhumerus -43.4271 1.92 -85.9997
rradius 26.7876
rwrist 2.72321
rhand -13.9109 24.6197
rfingers 7.12502
rthumb 12.2151 -5.00361
lclavicle -1.4884e-014 -3.63776e-014
lhumerus -40.6907 -5.4536 83.9003
lradius 61.5951
lwrist 9.64277
lhand -16.2676 26.5575
lfingers 7.12502
lthumb 9.94197 56.3027
rfemur -52.8571 -7.01869 17.2926
rtibia 62.8696
rfoot 3.92487 -1.39001
rtoes -26.2017
lfemur -10.8476 -9.65247 -32.3072
ltibia 41.5625
lfoot -27.0639 -5.72758
ltoes -6.81234
299
root -5.29587 19.2256 10.2528 4.48798 8.61037 5.84938
lowerback 8.00626 0.814647 -7.36517
upperback 2.0797 0.454693 -1.32924
thorax -2.37294 0.257265 2.71088
lowerneck -14.1594 15.1159 11.8433
upperneck 31.839 24.2571 -12.9986
head 17.2989 10.1181 -2.46998
rclavicle 3.21402e-014 -2.39536e-014
rhumerus -43.9799 1.83408 -85.8802
rradius 26.6715
rwrist 2.77053
rhand -14.3247 24.7126
rfingers 7.12502
rthumb 11.816 -4.93408
lclavicle 3.21402e-014 -2.39536e-014
lhumerus -41.3019 -5.63955 84.1127
lradius 61.6758
lwrist 9.80204
lhand -16.4597 27.2902
lfingers 7.12502
lthumb 9.75668 57.0442
rfemur -52.0977 -6.57942 16.6868
rtibia 60.3033
rfoot 5.31621 -1.27525
rtoes -24.8722
lfemur -10.7134 -9.74101 -32.2691
ltibia 41.9923
lfoot -26.8906 -6.36309
ltoes -5.50194
300
root -5.29212 19.1925 10.3622 4.5928 9.27715 6.00588
lowerback 7.9334 0.791319 -7.45449
upperback 1.95776 0.417867 -1.29802
thorax -2.45647 0.245144 2.79684
lowerneck -16.5108 15.2183 10.0521
upperneck 32.9583 24.4061 -11.4366
head 17.8313 9.95283 -1.35726
rclavicle -7.77434e-015 1.59028e-014
rhumerus -44.419 1.5375 -85.6922
rradius 26.5207
rwrist 2.81438
rhand -14.0392 24.5618
rfingers 7.12502
rthumb 12.0913 -5.06887
lclavicle -7.77434e-015 1.59028e-014
lhumerus -41.6816 -5.87213 84.3164
lradius 61.6425
lwrist 9.84316
lhand -16.4968 27.9698
lfingers 7.12502
lthumb 9.72082 57.7255
rfemur -51.3005 -6.18389 15.8764
rtibia 57.8204
rfoot 6.27119 -1.58604
rtoes -23.7339
lfemur -10.5884 -9.87363 -32.35
ltibia 42.4993
lfoot -26.7362 -7.0252
ltoes -4.36588
301
root -5.28726 19.1689 10.4876 4.51393 9.86795 6.07335
lowerback 7.66912 0.806129 -7.44293
upperback 2.13414 0.474908 -1.2447
thorax -2.13161 0.258761 2.84281
lowerneck -16.8798 15.3024 9.81477
upperneck 32.852 24.5449 -11.3722
head 17.827 9.97261 -1.23093
rclavicle -1.53561e-014 1.91827e-014
rhumerus -44.3318 1.11912 -85.3831
rradius 26.2881
rwrist 3.09719
rhand -13.4939 24.216
rfingers 7.12502
rthumb 12.6171 -5.38291
lclavicle -1.53561e-014 1.91827e-014
lhumerus -41.5545 -6.12954 84.49
lradius 61.3821
lwrist 9.7217
lhand -16.4485 27.9433
lfingers 7.12502
lthumb 9.76749 57.6968
rfemur -50.1347 -5.55616 15.0988
rtibia 55.4149
rfoot 7.17822 -2.02642
rtoes -23.0883
lfemur -10.2814 -9.94846 -32.3527
ltibia 42.9956
lfoot -26.5331 -7.7391
ltoes -3.56188
302
root -5.29247 19.1457 10.6162 4.39036 10.2419 6.04632
lowerback 7.36128 0.899587 -7.45021
upperback 2.37902 0.642275 -1.1876
thorax -1.72321 0.322765 2.89439
lowerneck -18.7276 15.6229 8.56774
upperneck 33.1953 25.1685 -10.695
head 18.1748 10.0178 -0.466769
rclavicle -3.72721e-017 6.95746e-015
rhumerus -44.0797 0.627923 -85.1071
rradius 26.1382
rwrist 3.31042
rhand -12.9605 23.9211
rfingers 7.12502
rthumb 13.1313 -5.64542
lclavicle -3.72721e-017 6.95746e-015
lhumerus -41.2757 -6.4335 84.5907
lradius 60.9233
lwrist 9.73044
lhand -16.5645 27.7762
lfingers 7.12502
lthumb 9.65558 57.5349
rfemur -49.0112 -4.41813 14.3539
rtibia 53.0959
rfoot 8.15063 -2.04394
rtoes -23.8665
lfemur -9.97073 -9.7971 -32.2145
ltibia 43.4852
lfoot -26.2742 -8.303
ltoes -4.02325
303
root -5.29326 19.1182 10.7473 4.32082 10.7645 6.30883
lowerback 7.09635 0.922606 -7.69665
upperback 2.50121 0.687342 -1.23101
thorax -1.45452 0.333266 2.98616
lowerneck -14.3138 14.8674 11.9041
upperneck 32.1001 23.7809 -12.6531
head 17.3224 9.9649 -2.4479
rclavicle -5.32991e-015 -2.08724e-014
rhumerus -44.2031 0.216365 -84.9562
rradius 26.0634
rwrist 3.45381
rhand -12.9479 24.0343
rfingers 7.12502
rthumb 13.1434 -5.53147
lclavicle -5.32991e-015 -2.08724e-014
lhumerus -41.482 -6.66677 84.6363
lradius 60.8392
lwrist 9.90061
lhand -16.5977 27.6148
lfingers 7.12502
lthumb 9.62355 57.375
rfemur -47.9479 -3.49446 13.2339
rtibia 50.8712
rfoot 9.08699 -2.20282
rtoes -23.6931
lfemur -9.5963 -9.7448 -32.4105
ltibia 44.0462
lfoot -26.1061 -8.58347
ltoes -5.85701
